<svg width="18" height="22" viewBox="0 0 18 22" fill="none" xmlns="http://www.w3.org/2000/svg">
<path d="M2.99999 7.49999C3 4.18628 5.68629 1.5 9 1.5V1.5C12.3137 1.5 15 4.1863 15 7.50001V9.7756C15 9.92344 15.0321 10.0695 15.094 10.2037L16.238 12.6824C16.637 13.5467 16.8364 13.9789 16.8667 14.3267C16.9453 15.2307 16.4055 16.0743 15.5518 16.3817C15.2233 16.5 14.7474 16.5 13.7954 16.5H9H4.20458C3.25263 16.5 2.77666 16.5 2.44816 16.3817C1.59448 16.0743 1.05473 15.2307 1.13333 14.3267C1.16357 13.9789 1.36303 13.5467 1.76195 12.6824L2.90594 10.2037C2.9679 10.0695 2.99998 9.92344 2.99998 9.7756L2.99999 7.49999Z" stroke="white" stroke-width="2"/>
<path d="M6 20L6.69841 20.1164C8.22229 20.3704 9.77771 20.3704 11.3016 20.1164L12 20" stroke="white" stroke-width="2" stroke-linecap="round"/>
</svg>
